<svg fill="none" height="18" viewBox="0 0 19 18" width="19" xmlns="http://www.w3.org/2000/svg"><path d="m5.844 14.344c-.36154 0-.71497.1072-1.01558.3081-.30061.2008-.53492.4863-.67327.8204-.13836.334-.17456.7015-.10403 1.0561.07054.3546.24464.6803.50029.936.25565.2556.58137.4297.93596.5003.3546.0705.72215.0343 1.05617-.104.33403-.1384.61952-.3727.82039-.6733.20086-.3006.30807-.6541.30807-1.0156-.00132-.4844-.19434-.9486-.53687-1.2911-.34253-.3426-.80672-.5356-1.29113-.5369zm-5.344-14.344v1.828h1.828l3.291 6.666-1.376 2.239c-.16072.2882-.24003.6148-.22945.9446.01057.3299.11063.6506.28948.928.17884.2774.42974.5009.72584.6466.2961.1458.62625.2083.95513.1808h10.688v-1.761h-10.464c-.03057.0019-.06119-.0027-.08984-.0136-.02864-.0108-.05466-.0276-.07631-.0493-.02166-.0216-.03846-.0476-.0493-.0763-.01083-.0286-.01545-.0592-.01355-.0898.02484-.0798.05837-.1566.1-.229l.913-1.441h6.808c.3291.00224.6525-.08614.9347-.25548.2822-.16933.5124-.41307.6653-.70452l3.291-5.66c.0636-.14379.0946-.29983.091-.457-.0012-.11759-.0261-.23374-.073-.34157-.047-.10782-.1151-.20513-.2003-.28616s-.1858-.14414-.2959-.18558c-.11-.04144-.2273-.06038-.3448-.05569h-13.529l-.868-1.827zm14.344 14.344c-.3615 0-.715.1072-1.0156.3081-.3006.2008-.5349.4863-.6733.8204-.1383.334-.1745.7015-.104 1.0561.0706.3546.2447.6803.5003.936.2557.2556.5814.4297.936.5003.3546.0705.7221.0343 1.0561-.104.3341-.1384.6196-.3727.8204-.6733.2009-.3006.3081-.6541.3081-1.0156-.0013-.4844-.1943-.9486-.5369-1.2911-.3425-.3426-.8067-.5356-1.2911-.5369z" fill="#fbfbff"/></svg>