<svg fill="none" height="18" viewBox="0 0 19 18" width="19" xmlns="http://www.w3.org/2000/svg"><path d="m17.9281 0h-16.01198c-.26362 0-.51645.104727-.70286.291138s-.291141.43924-.291141.702865v16.011997c0 .2636.104731.5165.291141.7029s.43924.2911.70286.2911h8.006v-7.125h-2.152v-2.625h2.152v-1.941c-.02594-.48685.05251-.97362.23008-1.42767.1776-.45405.4502-.86488.7995-1.20495.3494-.34007.7674-.60152 1.2261-.76681.4586-.16529.9473-.23061 1.4333-.19157.994 0 2.062.075 2.311.108v2.428h-1.655c-1.13 0-1.345.534-1.345 1.322v1.674h2.691l-.352 2.625h-2.339v7.125h5.006c.2636 0 .5165-.1047.7029-.2911s.2911-.4393.2911-.7029v-16.011997c0-.263625-.1047-.516454-.2911-.702865s-.4393-.291138-.7029-.291138z" fill="#fbfbff"/></svg>