<svg fill="none" height="18" viewBox="0 0 19 18" width="19" xmlns="http://www.w3.org/2000/svg"><g fill="#fbfbff"><path d="m13.6721 1.5c.9937.0029 1.9458.39892 2.6485 1.10155.7026.70264 1.0986 1.65478 1.1015 2.64845v7.5c-.0029.9937-.3989 1.9458-1.1015 2.6484-.7027.7027-1.6548 1.0987-2.6485 1.1016h-7.49998c-.99367-.0029-1.94581-.3989-2.64845-1.1016-.70263-.7026-1.09865-1.6547-1.10155-2.6484v-7.5c.0029-.99367.39892-1.94581 1.10155-2.64845.70264-.70263 1.65478-1.09865 2.64845-1.10155zm0-1.5h-7.49998c-1.39117.00395783-2.72423.558352-3.70794 1.54206-.98371.98371-1.538103 2.31677-1.542061 3.70794v7.5c.003958 1.3912.558351 2.7242 1.542061 3.7079s2.31677 1.5381 3.70794 1.5421h7.49998c1.3912-.004 2.7242-.5584 3.708-1.5421.9837-.9837 1.5381-2.3167 1.542-3.7079v-7.5c-.0039-1.39117-.5583-2.72423-1.542-3.70794-.9838-.983708-2.3168-1.53810217-3.708-1.54206z"/><path d="m13.715 6.44c-.1978 0-.3911-.05866-.5556-.16854-.1644-.10988-.2926-.26605-.3683-.44877-.0757-.18273-.0955-.3838-.0569-.57778s.1338-.37217.2737-.51202c.1398-.13985.318-.2351.512-.27368.194-.03859.3951-.01877.5778.05691.1827.07569.3389.20386.4488.3683.1098.16445.1685.3578.1685.55558 0 .26521-.1054.51957-.2929.7071-.1875.18754-.4419.2929-.7071.2929zm-4.34701.669c.52906 0 1.04621.15689 1.48611.45082.4399.29394.7828.71171.9853 1.2005.2024.4888.2554 1.02665.1522 1.54558-.1032.5189-.358.9955-.7321 1.3696s-.8507.6289-1.36965.7321c-.51889.1032-1.05675.0502-1.54554-.1522-.4888-.2025-.90657-.5453-1.2005-.9852-.29394-.44-.45082-.9571-.45082-1.48619.00079-.70921.28287-1.38916.78436-1.89064.50149-.50149 1.18143-.78357 1.89064-.78437zm0-1.337c-.7937 0-1.56957.23536-2.22951.67631-.65993.44096-1.17429 1.0677-1.47803 1.80098-.30373.73328-.3832 1.54016-.22836 2.31861.15484.7784.53705 1.4935 1.09828 2.0547s1.27627.9435 2.05472 1.0983 1.58531.0754 2.31861-.2284c.7333-.3037 1.36-.8181 1.801-1.478.4409-.6599.6763-1.4358.6763-2.2295-.0003-1.06423-.4232-2.0848-1.1757-2.83733-.7525-.75252-1.7731-1.17541-2.83731-1.17567z"/></g></svg>