<svg fill="none" height="18" viewBox="0 0 19 18" width="19" xmlns="http://www.w3.org/2000/svg"><path d="m9.5 9c.89 0 1.76-.26392 2.5001-.75838.74-.49447 1.3168-1.19727 1.6574-2.01954.3405-.82227.4297-1.72707.256-2.59998-.1736-.87292-.6022-1.67474-1.2315-2.30408-.6294-.629337-1.4312-1.057919-2.3041-1.231553-.87291-.1736335-1.77771-.0845137-2.59998.256081-.82226.340594-1.52507.917362-2.01954 1.657382-.49446.74003-.75838 1.61006-.75838 2.50007.00343 1.19242.47864 2.33502 1.32181 3.1782.84317.84317 1.98577 1.31837 3.17819 1.3218zm0 2.25c-2.981 0-9 1.519-9 4.5v2.25h18v-2.25c0-2.981-6.019-4.5-9-4.5z" fill="#fbfbff"/></svg>