<svg height="18" viewBox="0 0 23 18" width="23" xmlns="http://www.w3.org/2000/svg"><path d="m13.5 9c.89 0 1.76-.26392 2.5001-.75838.74-.49447 1.3168-1.19727 1.6574-2.01954s.4297-1.72707.256-2.59998c-.1736-.87292-.6022-1.67474-1.2315-2.30408-.6294-.629337-1.4312-1.057919-2.3041-1.231553-.8729-.1736335-1.7777-.0845137-2.6.256081-.8222.340594-1.525.917362-2.01951 1.657382-.49447.74003-.75839 1.61006-.75839 2.50007.00343 1.19242.47864 2.33502 1.3218 3.1782.8432.84317 1.9858 1.31837 3.1782 1.3218zm0 2.25c-2.981 0-9 1.519-9 4.5v2.25h18v-2.25c0-2.981-6.019-4.5-9-4.5zm-8.68933983-3 2.12132035-2.12132034-1.06066018-1.06066018-2.12132034 2.12132035-2.12132034-2.12132035-1.06066017 1.06066018 2.12132034 2.12132034-2.12132034 2.1213203 1.06066017 1.0606602 2.12132034-2.12132033 2.12132034 2.12132033 1.06066018-1.0606602z" fill="#fbfbff"/></svg>