<svg fill="none" height="18" viewBox="0 0 18 18" width="18" xmlns="http://www.w3.org/2000/svg"><path d="m12.8207 11.3143h-.8203l-.308-.2571c.9745-1.18279 1.5901-2.67445 1.5901-4.37147-.0001-3.70298-2.9749-6.68573-6.6668-6.68573-3.64139 0-6.6157 2.98275-6.6157 6.68573 0 3.70297 2.97431 6.68567 6.6668 6.68567 1.64114 0 3.17958-.6172 4.359-1.5941l.3075.2572v.8227l5.1283 5.1428 1.5384-1.5428zm-6.1539 0c-2.56416 0-4.61546-2.05719-4.61546-4.62857 0-2.57146 2.0513-4.62853 4.61546-4.62853 2.56406 0 4.6154 2.05707 4.6154 4.62853 0 2.57138-2.05134 4.62857-4.6154 4.62857z" fill="#fbfbff"/></svg>