<svg fill="none" height="28" viewBox="0 0 28 28" width="28" xmlns="http://www.w3.org/2000/svg" xmlns:xlink="http://www.w3.org/1999/xlink"><linearGradient id="a"><stop offset="0" stop-color="#26f596"/><stop offset="1" stop-color="#0499f2"/></linearGradient><linearGradient id="b" gradientUnits="userSpaceOnUse" x1="11.3398" x2="17.8026" xlink:href="#a" y1="20.976" y2="21.9649"/><linearGradient id="c" gradientUnits="userSpaceOnUse" x1="19.9688" x2="27.6632" xlink:href="#a" y1="19.151" y2="19.4625"/><linearGradient id="d" gradientUnits="userSpaceOnUse" x1="12.1141" x2="16.5974" xlink:href="#a" y1="3.99953" y2="4.72664"/><linearGradient id="e" gradientUnits="userSpaceOnUse" x1="15.3224" x2="17.0946" xlink:href="#a" y1="4.82941" y2="4.96699"/><linearGradient id="f" gradientUnits="userSpaceOnUse" x1="15.0044" x2="17.3465" xlink:href="#a" y1="3.21022" y2="3.38571"/><path d="m27.3959 13.4001c-.2765-.0553-.6084-.1106-1.051-.1659-2.1019-.1659-4.2039.4424-5.8633 1.7143-.4425.3317-.8851.6635-1.4382 1.1059-.6638.553-1.2722.3871-2.0467.0553-.3318-.1659-.7191-.2765-1.2169-.3871-2.8764-.6636-6.08459.9401-6.52714 1.9354 0 0-.60844-.4977-1.32755-.2212 0 0 1.1616-1.3825.49783-5.9722 0 0-.22128-4.70033 1.99136-5.41917 0 0 1.3275-.33179 1.936.33179.6084.66357 2.5445.49768 2.5445.49768s1.6594 0 2.1572.22121c.4979.22121 2.1573-.66358 2.1573-.66358s.5532-.88478-.2213-.94005c0 0 1.3829-.49768.7744-1.05068l-2.0465-3.76025s-.8851-.552998-4.5911.3871c-3.70615.99537-3.42954.49769-5.69747 2.599-2.26789 2.04599-5.25488 8.51585-5.25488 8.51585s-1.880714 5.4192-1.16161 9.4007c.16595.9953.27656 1.9907.22128 2.9861v.2212c-.05533.553.49783.9953 1.10628 1.2166.88505.3871 1.88071.4423 2.82104.2212.60845-.1106 1.65944 0 2.04666.1659.71911.2764 4.3145 1.8248 10.7864-.6083.7191-.2765 1.4381-.6083 2.1572-.9954.7744-.4423 2.3786-.7741 3.4295 2.2672h3.8167z" fill="#1e1e1e"/><path d="m11.3398 21.9716s.1106 0 .2765.0553c.166.0554.4425.0554.7744.1106.3319.0554.6638.0554 1.051.0554h.2766.2765c.2213 0 .3873 0 .6085-.0554.2213 0 .3872-.0553.6084-.1106.1106 0 .2213-.0553.2766-.0553.1106-.0553.1659-.0553.2765-.0553.166-.0554.3873-.1106.5532-.166.0553-.0553.1659-.0553.2213-.1106.0553-.0553.1659-.0553.2213-.1106.0553-.0553.1106-.0553.2212-.1106.0554-.0553.1106-.0553.166-.1106.1106-.0554.2213-.1106.2765-.166.166-.1106.2766-.1659.2766-.1659s-.0553.1106-.166.2213c-.0553.0553-.1659.1659-.2212.2765-.1106.1106-.2213.2213-.3319.2766-.0554.0553-.1106.1106-.2213.1659-.0553.0553-.1659.1106-.2213.166-.1659.1106-.3319.1659-.5531.2765-.2213.0553-.3873.166-.6085.2213-.1659.0553-.3872.1106-.6084.1106s-.4425.0553-.6638.0553-.4425 0-.6638-.0553c-.2213 0-.3872-.0553-.6084-.1106-.166-.0553-.3319-.1106-.4979-.166-.1659-.0553-.2765-.1106-.4425-.1659-.1106-.0553-.2212-.1106-.3318-.1659-.1106 0-.2212-.1107-.2212-.1107z" fill="url(#b)"/><path d="m27.381 26.6163c-.1106-.2212-.2766-.4423-.4425-.6635-.166-.2213-.3872-.4977-.6085-.7189-.2212-.2212-.4425-.4977-.7191-.7189-.2765-.2212-.5531-.4977-.885-.6636-.3319-.2212-.6638-.3871-.9957-.6083-.1659-.1105-.3319-.1659-.4978-.2212-.166-.0553-.3319-.1659-.4978-.2212-.166-.1106-.3319-.1659-.4425-.2765-.0554-.0553-.166-.1105-.2213-.1659-.0553-.0553-.166-.1105-.2213-.1658-.1659-.1106-.2765-.2213-.3872-.3318-.1106-.1106-.2213-.2212-.3319-.3318-.2213-.2212-.3872-.4424-.5532-.6636-.0553-.1106-.1106-.2212-.2212-.3318-.0554-.1106-.1106-.2212-.166-.3318-.0553-.2212-.1659-.3871-.1659-.553-.0554-.1659-.0553-.2764-.0553-.3871 0-.1106 0-.1106 0-.1106v.1106.1659.2212c0 .1659.0553.3871.0553.6083.0553.1106.0553.2212.1106.3871.0553.1106.1106.2765.1659.3871.1106.2765.3319.553.5532.7741.1106.1106.2213.2765.3319.3872.1106.1105.2765.2764.3872.3317.0553.0554.1659.1106.2213.1659.0553.0553.1659.1106.2213.1659.1659.1106.3318.2212.4978.2765.1659.1106.3319.1659.4978.2765.166.1106.3319.1659.4978.2764.3319.1659.6638.3318.9404.553.1659.1106.2765.2213.4425.2765.1659.1106.2765.2212.4425.3318.2765.2212.4978.4424.7744.6636.2212.2212.4425.4424.6084.6636s.3319.3871.4978.553c.0554.1105.1106.1659.166.2212z" fill="url(#c)"/><path d="m12.1141 5.05064h.2213.2213.2765c.2213 0 .4979-.05534.7192-.11062.1106-.05533.2765-.11061.3872-.16594.0553 0 .1106-.05533.1659-.11061.0553 0 .0553-.05534.1106-.05534l.0554-.05533.1106-.05533.0553-.05533c.0553-.05533.1106-.11061.1659-.16595.0554 0 .0554-.05533.1107-.05533l.1106-.05533c.0553 0 .0553-.05533.1106-.05533s.0553-.05533.1106-.05533c.1659-.05534.2766-.05534.4425-.05534.1106 0 .2766 0 .3872.05534.1106 0 .2213.05533.2766.11061.1106.05533.1659.05533.2213.11061.1106.05533.1659.11061.1659.11061s-.0553 0-.2213-.05533c-.0553 0-.1659 0-.2213-.05533-.1106 0-.1659 0-.2765-.05533-.1106 0-.2213 0-.3319 0-.0553 0-.0553 0-.1106 0s-.0553 0-.1106 0-.1106.05533-.166.05533c-.0553 0-.0553 0-.1106.05533 0 0-.0553 0-.0553.05533l-.0553.05534-.0554.05533-.0553.05533-.1106.05533c-.0554.05533-.0554.05533-.1106.11061l-.1106.05533-.1107.05534c-.0553 0-.0553.05533-.1106.05533 0 .05533-.0553.11061-.1659.11061-.0553.05533-.166.05533-.2213.05533s-.1659.05534-.2213.05534c-.1659.05533-.2765.05533-.3872.05533-.1106 0-.2765 0-.3872 0-.1106 0-.2213 0-.3319-.05533-.1106 0-.1659-.05534-.2213-.05534-.0553.05539-.0553.05539-.1659.00006z" fill="url(#d)"/><path d="m15.3224 4.82941h.1107c.0552 0 .1659 0 .2765.05534.0553 0 .1106.05533.166.05533.0553.05533.1106.05533.1659.11061.0553.05533.1106.05533.1659.11061.0554.05528.1107.11062.1107.11062 0 .05533 0 .11061.0553.11061.0553.05533.1106.05533.1106.11061.0553 0 .1106.05533.1106.05533.0553 0 .1106.05533.1106.05533.0554 0 .1106 0 .1106.05534h.1107.1106s0 0-.0554.05533c-.0553 0-.0553 0-.1106.05533-.0553 0-.1106 0-.1659 0-.0554 0-.1106 0-.166 0-.0553 0-.1106-.05533-.1659-.05533-.0553-.05533-.1106-.05533-.166-.11061-.0553-.05534-.1106-.11062-.1659-.16595l-.0553-.05533c-.0554-.05533-.0554-.05533-.0554-.05533-.0553-.05533-.0553-.11062-.1106-.11062-.0553-.05533-.0553-.11061-.1106-.16594-.0553 0-.0553-.05533-.1106-.05533-.0553-.05533-.1106-.11061-.1659-.11061-.0553-.05534-.1106-.05534-.1106-.05534z" fill="url(#e)"/><path d="m15.0458 4.16563c.0554-.11061.2213-.11061.3319-.22127.0554-.05533.1106-.11061.1106-.16595.0554-.11061.1107-.27655.166-.4425 0-.05533.0553-.11061.0553-.11061.1106-.05533.2213.05533.2213.11061 0 .11062 0 .22128.0553.27656.0554.11061.166.16594.2766.22128.2765.05533.6084-.11062.6638-.38722 0 .16594.0553.33188.1659.4425.0553.11061.2213.16594.166.27655-.0554.11061-.166.11061-.2766.11061-.2213 0-.4425.05534-.6638-.05533-.0553 0-.1106-.05533-.2213-.05533-.0553 0-.1106 0-.1659 0-.1106 0-.2213 0-.2766 0-.0552 0-.1106 0-.1659 0-.1106.05533-.1659.16594-.1659.33189-.1107 0-.2213-.05533-.2766-.11061-.0553.00005-.0553-.1659-.0001-.22118z" fill="url(#f)"/></svg>